# xmcd
#
# Track frame offsets:
#	150
#	17660
#	34588
#	65323
#	101732
#	137988
#	168274
#	197758
#	226408
#	260758
#	293068
#	319346
#
# Disc length: 4641 seconds
#
# Revision: 4
# Processed by: cddbd v1.5.2PL0 Copyright (c) Steve Scherf et al.
# Submitted via: EasyCDDAExtractor 15.2.5.1
#
DISCID=ab121f0c
DTITLE=Various Artist - HOUSE 2003/2 THE FINEST IN VOCAL HOUSE
DYEAR=2003
DGENRE=HOUSE
TTITLE0=AMBASSADOR OF LOVE - a deeper love 
TTITLE1=FABIO M. feat. ANGIE BROWN - Good enough 
TTITLE2=SEBASTIAN KRIEG pres. BUZIOS - U care 
TTITLE3=SHARAM JEY pres. JAMES DOUGLAS - Careless Whisper (Milk and Sugar Club M
TTITLE3=ix)
TTITLE4=JAIMY and KENNY D. - Keep on touching me (Erick Morillo Club Mix)
TTITLE5=DUBBING - It's crazy
TTITLE6=RAY ROC PRESENTS - Jungle Kisses (X-press 2 Vintage Mix)
TTITLE7=ROBBIE RIVERA - Bringing it down (JJ's Reprise)
TTITLE8=MIKE BALANCE - House Meanies (Stonebridge Remix)
TTITLE9=AXWELL - Lead guitar (Axwell Club)
TTITLE10=2 GUYS WITH TITS - U turn me on 
TTITLE11=HOLY GHOST - Superman (Faith Mix)
EXTD=
EXTT0=
EXTT1=
EXTT2=
EXTT3=
EXTT4=
EXTT5=
EXTT6=
EXTT7=
EXTT8=
EXTT9=
EXTT10=
EXTT11=
PLAYORDER=
